<svg height="22" viewBox="0 0 22 22" width="22" xmlns="http://www.w3.org/2000/svg">
    <g fill-rule="evenodd" id="homeIcon">
        <path
            d="M.727.72a.917.917 0 0 0-.269.649v10.097c0 .506.41.916.917.916h7.333c.507 0 .917-.41.917-.916V1.382a.917.917 0 0 0-.917-.916L1.375.452A.917.917 0 0 0 .727.72zM20.625.452l-7.333.013a.917.917 0 0 0-.917.916v4.584c0 .506.41.916.917.916h7.333c.506 0 .917-.41.917-.916V1.369a.917.917 0 0 0-.917-.917zM9.356 21.28a.917.917 0 0 0 .269-.649v-4.583a.917.917 0 0 0-.917-.917H1.375a.917.917 0 0 0-.917.917v4.57c0 .506.41.916.917.916l7.333.013a.917.917 0 0 0 .648-.268zM20.625 9.632h-7.333a.917.917 0 0 0-.917.917v10.083c0 .507.41.917.917.917l7.333-.013c.506 0 .917-.41.917-.917V10.55a.917.917 0 0 0-.917-.917z">
        </path>
    </g>
</svg>