<svg height="24" viewBox="0 0 24 24" width="24" xmlns="http://www.w3.org/2000/svg">
    <g fill="none" fill-rule="evenodd" stroke="#7C889D" stroke-linecap="round" stroke-linejoin="round"
        stroke-width="1.636" transform="translate(1 1)">
        <path
            d="M9.667 2.235a1.794 1.794 0 0 0 2.666 0l.867-.952a1.796 1.796 0 0 1 3.126 1.296l-.065 1.283a1.795 1.795 0 0 0 1.88 1.883l1.283-.065a1.796 1.796 0 0 1 1.293 3.126l-.955.861a1.797 1.797 0 0 0 0 2.667l.955.861a1.796 1.796 0 0 1-1.296 3.126l-1.283-.065a1.795 1.795 0 0 0-1.885 1.885l.066 1.283a1.796 1.796 0 0 1-3.119 1.293l-.863-.955a1.796 1.796 0 0 0-2.665 0l-.867.955a1.796 1.796 0 0 1-3.122-1.291l.066-1.283a1.795 1.795 0 0 0-1.884-1.885l-1.284.065A1.795 1.795 0 0 1 1.283 13.2l.955-.862a1.797 1.797 0 0 0 0-2.666l-.955-.867a1.795 1.795 0 0 1 1.292-3.122l1.283.065A1.795 1.795 0 0 0 5.745 3.86l-.062-1.284a1.796 1.796 0 0 1 3.123-1.293l.861.952z">
        </path>
        <circle cx="11" cy="11.001" r="4.125"></circle>
    </g>
</svg>